<svg width="109" height="30" viewBox="0 0 109 30" fill="none" xmlns="http://www.w3.org/2000/svg">
<path d="M21.3595 12.432C21.3595 14.128 21.0768 15.6853 20.5115 17.104C19.9462 18.5227 19.1515 19.744 18.1275 20.768C17.1035 21.792 15.8715 22.5867 14.4315 23.152C12.9915 23.7173 11.3915 24 9.6315 24H0.815502V0.863998H9.6315C11.3915 0.863998 12.9915 1.152 14.4315 1.728C15.8715 2.29333 17.1035 3.088 18.1275 4.112C19.1515 5.12533 19.9462 6.34133 20.5115 7.76C21.0768 9.17867 21.3595 10.736 21.3595 12.432ZM16.9435 12.432C16.9435 11.1627 16.7728 10.0267 16.4315 9.024C16.1008 8.01067 15.6155 7.15733 14.9755 6.464C14.3462 5.76 13.5782 5.22133 12.6715 4.848C11.7755 4.47467 10.7622 4.288 9.6315 4.288H5.1355V20.576H9.6315C10.7622 20.576 11.7755 20.3893 12.6715 20.016C13.5782 19.6427 14.3462 19.1093 14.9755 18.416C15.6155 17.712 16.1008 16.8587 16.4315 15.856C16.7728 14.8427 16.9435 13.7013 16.9435 12.432ZM39.931 7.584L30.987 28.512C30.8697 28.7893 30.715 28.9973 30.523 29.136C30.3417 29.2853 30.059 29.36 29.675 29.36H26.731L29.803 22.768L23.163 7.584H26.635C26.9443 7.584 27.1843 7.65867 27.355 7.808C27.5363 7.95733 27.6697 8.128 27.755 8.32L31.243 16.832C31.3603 17.12 31.4563 17.408 31.531 17.696C31.6163 17.984 31.6963 18.2773 31.771 18.576C31.867 18.2773 31.963 17.984 32.059 17.696C32.155 17.3973 32.2617 17.104 32.379 16.816L35.675 8.32C35.7603 8.10667 35.899 7.93067 36.091 7.792C36.2937 7.65333 36.5177 7.584 36.763 7.584H39.931ZM48.159 15.392C48.6497 15.392 49.0763 15.328 49.439 15.2C49.8017 15.0613 50.1003 14.8747 50.335 14.64C50.5803 14.4053 50.7617 14.1227 50.879 13.792C51.007 13.4613 51.071 13.0987 51.071 12.704C51.071 11.8933 50.8257 11.2533 50.335 10.784C49.855 10.304 49.1297 10.064 48.159 10.064C47.1883 10.064 46.4577 10.304 45.967 10.784C45.487 11.2533 45.247 11.8933 45.247 12.704C45.247 13.088 45.3057 13.4453 45.423 13.776C45.551 14.1067 45.7323 14.3947 45.967 14.64C46.2123 14.8747 46.5163 15.0613 46.879 15.2C47.2523 15.328 47.679 15.392 48.159 15.392ZM52.623 24.736C52.623 24.416 52.527 24.1547 52.335 23.952C52.143 23.7493 51.8817 23.5947 51.551 23.488C51.2203 23.3707 50.831 23.2853 50.383 23.232C49.9457 23.1787 49.4763 23.1413 48.975 23.12C48.4843 23.088 47.9723 23.0613 47.439 23.04C46.9163 23.0187 46.4043 22.976 45.903 22.912C45.4657 23.1573 45.1083 23.4453 44.831 23.776C44.5643 24.1067 44.431 24.4907 44.431 24.928C44.431 25.216 44.5003 25.4827 44.639 25.728C44.7883 25.984 45.0177 26.2027 45.327 26.384C45.647 26.5653 46.0577 26.704 46.559 26.8C47.0603 26.9067 47.6737 26.96 48.399 26.96C49.135 26.96 49.7697 26.9013 50.303 26.784C50.8363 26.6773 51.2737 26.5227 51.615 26.32C51.967 26.128 52.223 25.8933 52.383 25.616C52.543 25.3493 52.623 25.056 52.623 24.736ZM56.559 8.144V9.616C56.559 10.0853 56.2763 10.3733 55.711 10.48L54.239 10.752C54.463 11.3173 54.575 11.936 54.575 12.608C54.575 13.4187 54.4097 14.1547 54.079 14.816C53.759 15.4667 53.311 16.0213 52.735 16.48C52.159 16.9387 51.4763 17.296 50.687 17.552C49.9083 17.7973 49.0657 17.92 48.159 17.92C47.839 17.92 47.5297 17.904 47.231 17.872C46.9323 17.84 46.639 17.7973 46.351 17.744C45.839 18.0533 45.583 18.4 45.583 18.784C45.583 19.1147 45.7323 19.36 46.031 19.52C46.3403 19.6693 46.7457 19.776 47.247 19.84C47.7483 19.904 48.319 19.9467 48.959 19.968C49.599 19.9787 50.255 20.0107 50.927 20.064C51.599 20.1173 52.255 20.2133 52.895 20.352C53.535 20.48 54.1057 20.688 54.607 20.976C55.1083 21.264 55.5083 21.6587 55.807 22.16C56.1163 22.6507 56.271 23.2853 56.271 24.064C56.271 24.7893 56.0897 25.4933 55.727 26.176C55.375 26.8587 54.8577 27.4667 54.175 28C53.503 28.5333 52.671 28.96 51.679 29.28C50.6977 29.6107 49.5777 29.776 48.319 29.776C47.0817 29.776 46.0043 29.6533 45.087 29.408C44.1697 29.1733 43.407 28.8533 42.799 28.448C42.191 28.0533 41.7377 27.5947 41.439 27.072C41.1403 26.5493 40.991 26.0053 40.991 25.44C40.991 24.672 41.2203 24.032 41.679 23.52C42.1483 22.9973 42.7883 22.5813 43.599 22.272C43.1617 22.048 42.815 21.7493 42.559 21.376C42.303 21.0027 42.175 20.512 42.175 19.904C42.175 19.6587 42.2177 19.408 42.303 19.152C42.399 18.8853 42.5323 18.624 42.703 18.368C42.8843 18.112 43.1083 17.872 43.375 17.648C43.6417 17.4133 43.9563 17.2053 44.319 17.024C43.487 16.576 42.831 15.9787 42.351 15.232C41.8817 14.4853 41.647 13.6107 41.647 12.608C41.647 11.7973 41.807 11.0667 42.127 10.416C42.4577 9.75467 42.911 9.19467 43.487 8.736C44.0737 8.26667 44.7617 7.90933 45.551 7.664C46.351 7.41867 47.2203 7.296 48.159 7.296C48.863 7.296 49.5243 7.37067 50.143 7.52C50.7617 7.65867 51.327 7.86667 51.839 8.144H56.559ZM63.4013 9.6C63.7319 9.26933 64.0786 8.96533 64.4413 8.688C64.8146 8.4 65.2039 8.16 65.6093 7.968C66.0253 7.76533 66.4679 7.61067 66.9373 7.504C67.4066 7.38667 67.9186 7.328 68.4733 7.328C69.3693 7.328 70.1639 7.48267 70.8573 7.792C71.5506 8.09067 72.1266 8.51733 72.5853 9.072C73.0546 9.616 73.4066 10.272 73.6413 11.04C73.8866 11.7973 74.0093 12.6347 74.0093 13.552V24H70.0573V13.552C70.0573 12.5493 69.8279 11.776 69.3693 11.232C68.9106 10.6773 68.2119 10.4 67.2733 10.4C66.5906 10.4 65.9506 10.5547 65.3533 10.864C64.7559 11.1733 64.1906 11.5947 63.6573 12.128V24H59.7053V7.584H62.1213C62.6333 7.584 62.9693 7.824 63.1293 8.304L63.4013 9.6ZM85.6718 7.328C86.8878 7.328 87.9918 7.52533 88.9838 7.92C89.9864 8.31467 90.8397 8.87467 91.5437 9.6C92.2584 10.3253 92.8077 11.2107 93.1917 12.256C93.5757 13.3013 93.7677 14.4693 93.7677 15.76C93.7677 17.0613 93.5757 18.2347 93.1917 19.28C92.8077 20.3253 92.2584 21.216 91.5437 21.952C90.8397 22.688 89.9864 23.2533 88.9838 23.648C87.9918 24.0427 86.8878 24.24 85.6718 24.24C84.4451 24.24 83.3304 24.0427 82.3277 23.648C81.3251 23.2533 80.4664 22.688 79.7517 21.952C79.0477 21.216 78.4984 20.3253 78.1037 19.28C77.7197 18.2347 77.5277 17.0613 77.5277 15.76C77.5277 14.4693 77.7197 13.3013 78.1037 12.256C78.4984 11.2107 79.0477 10.3253 79.7517 9.6C80.4664 8.87467 81.3251 8.31467 82.3277 7.92C83.3304 7.52533 84.4451 7.328 85.6718 7.328ZM85.6718 21.2C87.0371 21.2 88.0451 20.7413 88.6958 19.824C89.3571 18.9067 89.6877 17.5627 89.6877 15.792C89.6877 14.0213 89.3571 12.672 88.6958 11.744C88.0451 10.816 87.0371 10.352 85.6718 10.352C84.2851 10.352 83.2557 10.8213 82.5837 11.76C81.9224 12.688 81.5917 14.032 81.5917 15.792C81.5917 17.552 81.9224 18.896 82.5837 19.824C83.2557 20.7413 84.2851 21.2 85.6718 21.2ZM84.6477 3.328C84.6477 3.62667 84.5891 3.90933 84.4718 4.176C84.3544 4.432 84.1891 4.656 83.9757 4.848C83.7731 5.04 83.5331 5.19467 83.2557 5.312C82.9891 5.41866 82.7011 5.472 82.3917 5.472C82.1037 5.472 81.8264 5.41866 81.5597 5.312C81.3037 5.19467 81.0744 5.04 80.8717 4.848C80.6797 4.656 80.5251 4.432 80.4077 4.176C80.2904 3.90933 80.2317 3.62667 80.2317 3.328C80.2317 3.01867 80.2904 2.73067 80.4077 2.464C80.5251 2.18667 80.6797 1.94667 80.8717 1.744C81.0744 1.54133 81.3037 1.38133 81.5597 1.264C81.8264 1.14667 82.1037 1.088 82.3917 1.088C82.7011 1.088 82.9891 1.14667 83.2557 1.264C83.5331 1.38133 83.7731 1.54133 83.9757 1.744C84.1891 1.94667 84.3544 2.18667 84.4718 2.464C84.5891 2.73067 84.6477 3.01867 84.6477 3.328ZM91.1118 3.328C91.1118 3.62667 91.0531 3.90933 90.9358 4.176C90.8184 4.432 90.6584 4.656 90.4558 4.848C90.2638 5.04 90.0291 5.19467 89.7517 5.312C89.4851 5.41866 89.1971 5.472 88.8877 5.472C88.5891 5.472 88.3064 5.41866 88.0398 5.312C87.7731 5.19467 87.5384 5.04 87.3357 4.848C87.1438 4.656 86.9891 4.432 86.8717 4.176C86.7544 3.90933 86.6958 3.62667 86.6958 3.328C86.6958 3.01867 86.7544 2.73067 86.8717 2.464C86.9891 2.18667 87.1438 1.94667 87.3357 1.744C87.5384 1.54133 87.7731 1.38133 88.0398 1.264C88.3064 1.14667 88.5891 1.088 88.8877 1.088C89.1971 1.088 89.4851 1.14667 89.7517 1.264C90.0291 1.38133 90.2638 1.54133 90.4558 1.744C90.6584 1.94667 90.8184 2.18667 90.9358 2.464C91.0531 2.73067 91.1118 3.01867 91.1118 3.328ZM107.439 10.784C107.332 10.9547 107.22 11.0773 107.103 11.152C106.985 11.216 106.836 11.248 106.655 11.248C106.463 11.248 106.255 11.1947 106.031 11.088C105.817 10.9813 105.567 10.864 105.279 10.736C104.991 10.5973 104.66 10.4747 104.287 10.368C103.924 10.2613 103.492 10.208 102.991 10.208C102.212 10.208 101.599 10.3733 101.151 10.704C100.713 11.0347 100.495 11.4667 100.495 12C100.495 12.352 100.607 12.6507 100.831 12.896C101.065 13.1307 101.369 13.3387 101.743 13.52C102.127 13.7013 102.559 13.8667 103.039 14.016C103.519 14.1547 104.004 14.3093 104.495 14.48C104.996 14.6507 105.487 14.848 105.967 15.072C106.447 15.2853 106.873 15.5627 107.247 15.904C107.631 16.2347 107.935 16.6347 108.159 17.104C108.393 17.5733 108.511 18.1387 108.511 18.8C108.511 19.5893 108.367 20.32 108.079 20.992C107.801 21.6533 107.385 22.2293 106.831 22.72C106.276 23.2 105.588 23.5787 104.767 23.856C103.956 24.1227 103.017 24.256 101.951 24.256C101.385 24.256 100.831 24.2027 100.287 24.096C99.7534 24 99.2361 23.8613 98.7347 23.68C98.2441 23.4987 97.7854 23.2853 97.3587 23.04C96.9427 22.7947 96.5747 22.528 96.2547 22.24L97.1667 20.736C97.2841 20.5547 97.4227 20.416 97.5827 20.32C97.7427 20.224 97.9454 20.176 98.1907 20.176C98.4361 20.176 98.6654 20.2453 98.8787 20.384C99.1027 20.5227 99.3587 20.672 99.6467 20.832C99.9347 20.992 100.271 21.1413 100.655 21.28C101.049 21.4187 101.545 21.488 102.143 21.488C102.612 21.488 103.012 21.4347 103.343 21.328C103.684 21.2107 103.961 21.0613 104.175 20.88C104.399 20.6987 104.559 20.4907 104.655 20.256C104.761 20.0107 104.815 19.76 104.815 19.504C104.815 19.12 104.697 18.8053 104.463 18.56C104.239 18.3147 103.935 18.1013 103.551 17.92C103.177 17.7387 102.745 17.5787 102.255 17.44C101.775 17.2907 101.279 17.1307 100.767 16.96C100.265 16.7893 99.7694 16.592 99.2787 16.368C98.7987 16.1333 98.3667 15.84 97.9827 15.488C97.6094 15.136 97.3054 14.704 97.0707 14.192C96.8467 13.68 96.7347 13.0613 96.7347 12.336C96.7347 11.664 96.8681 11.024 97.1347 10.416C97.4014 9.808 97.7907 9.28 98.3027 8.832C98.8254 8.37333 99.4707 8.01067 100.239 7.744C101.017 7.46667 101.913 7.328 102.927 7.328C104.057 7.328 105.087 7.51467 106.015 7.888C106.943 8.26133 107.716 8.752 108.335 9.36L107.439 10.784Z" fill="black"/>
</svg>
